<?xml version="1.0" ?><svg width="120" height="24" viewBox="0 0 120 24" fill="none" xmlns="http://www.w3.org/2000/svg">
    <path d="M10.4 2H2V22H10.4C16.8 22 20 18.2 20 12C20 5.8 16.8 2 10.4 2ZM10.2 18.4H6.2V5.6H10.2C14 5.6 15.8 7.8 15.8 12C15.8 16.2 14 18.4 10.2 18.4Z" fill="#2563EB"/>
    <path d="M32.5 22H36.7V14.8H44.9V11.4H36.7V5.6H45.7V2H32.5V22Z" fill="#111827"/>
    <path d="M57.1 22.4C62.9 22.4 66.5 18.6 66.5 12C66.5 5.4 62.9 1.6 57.1 1.6C51.3 1.6 47.7 5.4 47.7 12C47.7 18.6 51.3 22.4 57.1 22.4ZM57.1 18.8C53.7 18.8 51.9 16.2 51.9 12C51.9 7.8 53.7 5.2 57.1 5.2C60.5 5.2 62.3 7.8 62.3 12C62.3 16.2 60.5 18.8 57.1 18.8Z" fill="#111827"/>
    <path d="M77.9 22H82.1V14.8H85.7L90.5 22H95.3L90.1 14.2C92.7 13.2 94.1 11 94.1 8C94.1 3.8 91.3 2 86.5 2H77.9V22ZM82.1 11.4V5.6H86.1C88.9 5.6 89.9 6.6 89.9 8.4C89.9 10.2 88.9 11.4 86.1 11.4H82.1Z" fill="#111827"/>
    <path d="M105.9 22H118.5V18.4H110.1V2H105.9V22Z" fill="#111827"/>
</svg>
